<?xml version="1.0" standalone="no"?><!DOCTYPE svg PUBLIC "-//W3C//DTD SVG 1.1//EN" "http://www.w3.org/Graphics/SVG/1.1/DTD/svg11.dtd"><svg t="1703822241992" class="icon" viewBox="0 0 1024 1024" version="1.1" xmlns="http://www.w3.org/2000/svg" p-id="858" xmlns:xlink="http://www.w3.org/1999/xlink" width="180" height="180"><path d="M498.30205904 443.06842611c-0.44186907-3.68224221-0.73644845-6.77532564-1.03102782-10.16298845-0.29457937-3.38766283-0.44186907-6.62803595-0.58915876-10.01569877-0.29457937-6.62803595-0.29457937-13.2560719-0.14728968-19.88410786 0.44186907-13.2560719 1.62018657-26.65943349 3.6822422-39.91550538s5.15513907-26.65943349 9.42654001-39.76821571c4.12411126-13.10878221 9.42654002-26.21756444 16.05457597-38.73718789s14.28709972-24.74466755 23.27177067-36.08597352c9.13196064-11.34130596 19.2949491-21.94616349 30.63625507-31.51999318 22.53532223-19.00036972 49.04746604-33.43475913 76.59063766-43.59774758l0.58915874-0.29457939c19.73681815-7.36448439 41.68298165 2.79850407 49.04746602 22.53532223 7.36448439 19.73681815-2.79850407 41.68298165-22.53532223 49.04746604-2.20934532 0.88373813-4.71327001 1.47289687-7.069905 1.91476596-21.35700474 3.5349525-42.12485071 10.01569877-60.97793075 20.4732666-9.42654002 5.15513907-18.26392129 11.48859565-26.80672317 18.55850065-8.3955122 7.06990501-16.05457598 15.31812754-23.12448099 24.15550881-7.06990501 8.83738127-13.40336159 18.55850066-19.00036972 28.8687788-5.59700814 10.31027814-10.45756784 21.20971504-14.58167911 32.551021-4.12411126 11.34130596-7.51177407 22.97719129-10.16298845 34.907656-1.3256072 6.03887719-2.50392469 11.93046471-3.3876628 18.11663161-0.44186907 3.09308345-0.88373813 6.03887719-1.1783175 9.13196064-0.29457937 2.94579374-0.58915875 6.1861669-0.73644846 8.83738126v0.44186908c-0.29457937 5.0078494-4.56598032 8.69009158-9.57382971 8.39551219-4.41869063-0.44186907-7.80635344-3.82953187-8.39551219-7.95364314z" fill="#FFC229" p-id="859"></path><path d="M548.2332632 492.85234059c2.20934532-2.65121438 4.27140094-4.8605597 6.33345658-7.2171947 2.06205563-2.35663501 4.27140094-4.56598032 6.48074626-6.77532564 4.41869063-4.41869063 8.98467097-8.69009158 13.69794096-12.81420285 9.42654002-8.24822251 19.2949491-15.90728628 29.89980662-22.97719129 21.06242535-13.99252034 44.6287754-25.77569536 70.55176046-32.84560037 12.96149253-3.38766283 26.36485411-6.03887719 40.21008476-6.92261534 3.38766283-0.44186907 6.92261532-0.29457937 10.31027813-0.44186905l5.15513909-0.14728969c1.76747625 0 3.5349525 0.1472897 5.15513907 0.14728969 3.5349525 0.1472897 6.92261532 0.29457937 10.45756782 0.58915876l10.45756784 1.17831749c27.83775099 3.82953187 54.79176385 13.69794096 79.24185204 26.95401286 18.55850066 10.01569877 25.33382629 33.14017975 15.31812754 51.69868042-10.01569877 18.55850066-33.14017975 25.33382629-51.69868043 15.31812753-1.91476594-1.03102783-3.82953187-2.20934532-5.44971844-3.53495251l-0.29457937-0.29457937-5.89158753-4.71327002c-1.91476594-1.47289687-3.82953187-3.24037312-5.89158751-4.56598032-4.12411126-2.79850407-8.10093283-5.89158752-12.37233376-8.24822249-8.3955122-5.30242877-17.38018317-9.27925033-26.6594335-12.81420285l-7.06990501-2.35663501c-2.35663501-0.73644845-4.8605597-1.3256072-7.2171947-1.91476595-1.17831749-0.29457937-2.35663501-0.58915875-3.68224219-0.88373812l-3.6822422-0.73644843c-2.50392469-0.44186907-5.0078494-1.03102783-7.51177408-1.32560719-10.01569877-1.47289687-20.47326659-1.62018657-30.93083442-1.03102783-21.06242535 1.17831749-42.56671978 6.77532564-63.48185546 15.17083785-10.45756784 4.27140094-20.6205563 9.27925033-30.63625505 14.87625847-5.0078494 2.79850407-9.86840908 5.74429781-14.58167909 8.98467094l-7.06990502 4.86055971c-2.35663501 1.62018657-4.71327001 3.38766283-6.62803594 5.00784939l-0.44186907 0.29457937c-3.82953187 3.09308345-9.5738297 2.35663501-12.51962347-1.47289688-2.50392469-3.09308345-2.35663501-7.80635344 0.44186907-11.04672658z" fill="#FFE045" p-id="860"></path><path d="M544.25644163 552.79924353c3.24037312 1.03102783 5.89158752 1.91476594 8.83738127 2.94579375 2.79850407 1.03102783 5.74429781 2.06205563 8.54280188 3.09308343 5.59700814 2.20934532 11.19401627 4.56598032 16.64373472 7.06990503 11.04672658 5.15513907 21.79887379 10.75214722 32.25644163 17.23289346 20.91513568 12.81420285 40.79924353 28.42690974 58.03213699 47.57456916 8.69009158 9.5738297 16.79102442 19.88410785 23.71363975 31.22541382 6.92261532 11.19401627 13.2560719 23.27177067 17.9693419 35.9386838 0.58915875 1.62018657 1.3256072 3.09308345 1.91476594 4.71327003l1.62018656 4.86055969c1.03102783 3.24037312 2.20934532 6.48074626 3.09308345 9.7211194 1.62018657 6.62803595 3.5349525 13.2560719 4.56598031 20.03139754 2.65121438 13.55065127 3.38766283 27.24859225 3.8295319 40.94653322 0.58915875 21.06242535-16.05457598 38.58989821-37.11700134 39.17905692-21.06242535 0.58915875-38.58989821-16.05457598-39.17905696-37.11700132 0-2.65121438 0.1472897-5.15513907 0.58915876-7.65906375l0.14728969-0.73644845c1.76747625-9.27925033 3.38766283-18.85308003 3.53495251-28.42690974 0.44186907-4.8605597 0-9.5738297 0-14.28709971-0.1472897-2.35663501-0.44186907-4.71327001-0.58915875-7.21719471l-0.29457938-3.5349525c-0.1472897-1.17831749-0.44186907-2.35663501-0.58915875-3.53495251-1.3256072-9.5738297-3.97682157-19.00036972-7.3644844-28.42690974-3.24037312-9.42654002-7.80635344-18.55850066-12.96149251-27.54317161-10.31027814-17.96934191-24.15550879-34.7603663-40.06279509-49.78391448-7.95364315-7.51177407-16.49644503-14.72896878-25.33382629-21.35700473-4.41869063-3.24037312-8.98467097-6.62803595-13.69794097-9.57382972-2.35663501-1.47289687-4.71327001-3.09308345-7.06990501-4.41869062-2.35663501-1.47289687-4.8605597-2.94579374-7.069905-4.12411126l-0.44186908-0.29457939c-4.27140094-2.35663501-5.89158752-7.80635344-3.5349525-12.22504408 1.62018657-3.82953187 6.03887719-5.44971845 10.01569877-4.27140093zM439.3861839 483.86766964c-2.06205563-2.20934532-4.41869063-4.71327001-6.77532561-6.92261533-2.35663501-2.35663501-4.8605597-4.56598032-7.21719471-6.92261534-4.8605597-4.56598032-10.01569877-8.83738127-15.17083784-12.96149252-10.31027814-8.3955122-21.06242535-16.05457598-32.25644163-22.97719129-11.04672658-6.92261532-22.53532223-13.10878221-34.17120756-18.41121098-11.63588534-5.30242877-23.71363973-9.42654002-35.64410446-12.66691315-11.93046471-3.24037312-24.00821911-5.30242877-36.08597351-5.8915875-11.93046471-0.73644845-23.86092942-0.58915875-35.34952507 1.32560717-1.47289687 0.1472897-2.94579374 0.29457937-4.27140093 0.58915876l-4.27140095 0.88373813c-2.79850407 0.58915875-5.74429781 1.03102783-8.54280189 1.76747627-5.59700814 1.62018657-11.19401627 2.94579374-16.64373473 5.15513906-10.89943689 3.68224221-21.35700474 9.13196064-31.51999318 14.5816791l-0.88373813 0.44186905c-18.55850066 10.01569877-41.68298165 3.09308345-51.69868041-15.46541722-10.01569877-18.55850066-3.09308345-41.68298165 15.46541722-51.69868041 1.91476594-1.03102783 3.97682157-1.91476594 6.0388772-2.65121439 15.17083783-5.0078494 30.34167568-9.5738297 46.24896197-12.0777544 7.80635344-1.47289687 15.90728628-2.06205563 23.71363971-2.79850405 3.97682157-0.29457937 7.95364315-0.29457937 11.93046472-0.44186906l5.89158752-0.14728971c2.06205563 0 3.97682157 0.1472897 6.03887719 0.29457938 15.90728628 0.44186907 31.51999319 2.94579374 46.69083103 6.62803596s29.60522723 8.98467097 43.30316821 15.31812752c13.69794096 6.33345658 26.65943349 13.84523065 38.88447759 22.09345318 12.22504409 8.3955122 23.56635005 17.38018317 34.31849725 27.10130256 10.75214722 9.72111939 20.76784598 20.03139755 30.0470963 30.78354473 4.56598032 5.44971845 9.13196064 10.89943689 13.55065129 16.49644503 2.20934532 2.79850407 4.27140094 5.74429781 6.33345656 8.54280191 2.06205563 2.94579374 3.97682157 5.74429781 6.18616689 8.98467094 2.65121438 4.12411126 1.47289687 9.72111939-2.65121437 12.37233379-3.68224221 2.35663501-8.54280189 1.62018657-11.34130597-1.47289689l-0.1472897 0.1472897z" fill="#FFC229" p-id="861"></path><path d="M422.30058013 320.37611618c-1.17831749-4.41869063-2.65121438-9.27925033-4.27140094-13.99252034-1.62018657-4.71327001-3.24037312-9.27925033-5.15513908-13.99252034-3.68224221-9.27925033-7.65906378-18.26392129-12.07775438-27.10130256-8.83738127-17.52747284-19.00036972-34.17120756-30.48896539-49.63662478-5.74429781-7.65906378-11.78317502-15.02354815-18.11663159-22.09345315-6.33345658-6.92261532-12.96149253-13.69794096-19.88410786-19.88410786-13.69794096-12.51962347-28.57419943-23.27177067-44.03961666-32.55102102-18.11663161-10.89943689-24.15550879-34.31849726-13.25607189-52.43512883 10.89943689-18.11663161 34.31849726-24.15550879 52.43512885-13.25607191 2.65121438 1.62018657 5.0078494 3.38766283 7.06990502 5.44971844l0.73644845 0.73644844c16.49644503 16.20186565 31.22541381 33.87662819 43.89232695 52.58241855 6.33345658 9.42654002 12.0777544 19.00036972 17.52747284 28.72148912 5.30242877 9.86840908 10.16298847 19.73681815 14.43438941 29.8998066 8.54280189 20.17868721 15.31812754 40.94653321 20.17868723 61.86166888 2.35663501 10.45756784 4.41869063 20.91513568 5.89158752 31.5199932 0.73644845 5.30242877 1.3256072 10.60485751 1.91476592 15.90728628 0.44186907 5.44971845 0.88373813 10.45756784 0.88373814 16.34915534 0.1472897 5.0078494-3.82953187 8.98467097-8.83738126 9.13196064-4.27140094 0.1472897-7.80635344-2.79850407-8.83738128-6.62803595v-0.58915875zM285.02659111 544.99289006c-4.41869063 0.73644845-9.5738297 1.62018657-14.28709972 2.65121438-4.8605597 1.03102783-9.5738297 2.20934532-14.4343894 3.53495252-9.5738297 2.65121438-19.00036972 5.74429781-28.13233036 9.13196064-18.41121097 6.77532564-36.0859735 15.31812754-52.58241855 25.03924691-8.24822251 4.8605597-16.20186565 10.16298847-23.86092942 15.61270692-7.65906378 5.59700814-15.02354815 11.48859565-21.94616348 17.52747284-13.84523065 12.37233377-26.21756444 25.92298506-37.11700131 40.35737447-12.66691315 16.9383141-36.67513227 20.32597692-53.61344638 7.51177406-16.9383141-12.66691315-20.32597692-36.67513227-7.51177406-53.61344635 1.76747625-2.35663501 3.82953187-4.56598032 6.18616687-6.48074626l0.73644846-0.58915875c17.82205222-14.72896878 36.96971163-27.39588193 57.00110917-38.00073946 10.01569877-5.30242877 20.17868721-10.01569877 30.48896538-14.28709971 10.31027814-4.12411126 20.76784598-7.95364315 31.2254138-11.19401628 21.06242535-6.33345658 42.27214039-10.89943689 63.62914512-13.40336157 10.60485751-1.3256072 21.35700474-2.20934532 31.96186225-2.5039247 5.30242877-0.1472897 10.60485751-0.1472897 16.05457598-0.14728969 5.44971845 0.1472897 10.60485751 0.29457937 16.34915534 0.88373812 5.0078494 0.44186907 8.54280189 4.71327001 8.10093283 9.7211194-0.29457937 4.27140094-3.5349525 7.51177407-7.51177408 8.10093284l-0.73644844 0.14728967zM746.48518295 575.48185543c5.59700814 0.88373813 10.60485751 1.91476594 15.75999661 3.09308344 5.15513907 1.17831749 10.16298847 2.50392469 15.31812752 3.97682157 10.16298847 2.79850407 20.03139755 6.33345658 29.89980663 10.16298847 19.73681815 7.65906378 38.88447758 17.38018317 57.29568855 29.0160685 18.41121097 11.63588534 35.79139413 25.18653662 51.84597009 40.50466414 16.05457598 15.46541722 30.63625506 32.69831069 43.5977476 51.55139072l0.44186906 0.73644844c11.93046471 17.38018317 7.51177407 41.24111259-9.86840908 53.31886699-17.38018317 11.93046471-41.24111259 7.51177407-53.31886697-9.86840909-1.76747625-2.50392469-3.24037312-5.44971845-4.27140096-8.24822252-6.1861669-16.49644503-14.13981003-32.55102101-23.71363973-48.0164382-9.72111939-15.31812754-21.06242535-29.89980661-34.02391787-43.30316824-12.96149253-13.40336159-27.39588193-25.92298506-43.15587853-36.96971162-7.80635344-5.59700814-15.90728628-10.75214722-24.45008817-15.6127069-4.27140094-2.35663501-8.54280189-4.71327001-12.81420284-6.92261532-4.27140094-2.20934532-8.83738127-4.27140094-12.96149252-5.89158752l-0.58915876-0.29457938c-4.56598032-1.91476594-6.77532564-7.2171947-4.8605597-11.78317502 1.91476594-3.97682157 5.89158752-6.03887719 9.86840907-5.44971846z" fill="#CE111B" p-id="862"></path><path d="M492.7050509 657.66950123c2.65121438 22.38803254 5.44971845 44.92335477 7.95364314 67.458677 2.50392469 22.68261193 4.56598032 45.51251353 6.03887719 68.34241514 3.09308345 45.80709291 3.97682157 91.76147548 4.41869064 137.42127872 0.1472897 21.06242535-16.79102442 38.29531883-37.85344974 38.4426085-21.06242535 0.1472897-38.29531883-16.79102442-38.44260854-37.85344976 0-2.65121438 0.29457937-5.59700814 0.88373814-8.10093284 9.13196064-43.74503728 17.82205222-87.63736425 24.30279848-131.67698087 3.24037312-22.09345317 6.1861669-44.18690634 8.39551222-66.42764919 2.35663501-22.38803254 4.41869063-44.7760651 6.48074624-67.31138732 0.44186907-5.0078494 4.8605597-8.54280189 9.86840908-8.10093284 4.27140094 0.44186907 7.51177407 3.68224221 7.95364315 7.80635346zM691.69341911 337.60900965c4.71327001-3.38766283 8.98467097-6.03887719 13.69794095-8.83738126 4.56598032-2.79850407 9.13196064-5.44971845 13.84523067-7.95364314 9.42654002-5.15513907 19.00036972-9.72111939 28.86877881-13.99252035 19.73681815-8.54280189 40.35737445-15.31812754 61.71437917-20.47326659 10.75214722-2.50392469 21.65158411-4.56598032 32.551021-6.03887721 11.04672658-1.47289687 22.24074286-2.50392469 33.43475914-2.94579375 22.53532223-0.88373813 45.51251353 0.58915875 68.34241513 4.27140093l0.73644845 0.1472897c20.91513568 3.38766283 35.05494569 22.97719129 31.66728286 43.89232696-3.38766283 20.91513568-22.97719129 35.05494569-43.89232696 31.66728288-2.94579374-0.44186907-6.03887719-1.3256072-8.69009157-2.50392469-16.64373472-6.92261532-34.17120756-12.51962347-52.43512886-16.20186566-9.13196064-1.76747625-18.41121097-3.24037312-27.837751-4.12411126-9.42654002-0.88373813-18.85308003-1.47289687-28.57419942-1.47289688-19.14765941 0-38.73718787 1.47289687-58.032137 4.8605597-9.72111939 1.62018657-19.2949491 3.68224221-28.86877881 6.33345657-4.8605597 1.3256072-9.5738297 2.65121438-14.28709972 4.12411127-4.71327001 1.47289687-9.5738297 3.24037312-13.69794096 4.86055967l-0.44186905 0.14728971c-4.56598032 1.76747625-9.86840908-0.44186907-11.63588535-5.00784938-1.17831749-4.12411126 0.29457937-8.3955122 3.53495252-10.75214722z" fill="#FF2528" p-id="863"></path><path d="M451.7585177 562.81494228c-2.65121438 0.73644845-5.74429781 1.76747625-8.69009159 2.79850408-2.94579374 1.03102783-5.89158752 2.06205563-8.83738128 3.24037313-5.89158752 2.20934532-11.48859565 4.71327001-17.23289346 7.21719471-11.34130596 5.15513907-22.24074286 11.04672658-32.55102098 17.52747284-20.76784598 12.96149253-39.32634663 28.42690974-54.05531544 46.24896195-14.87625845 17.67476253-25.33382629 37.55887038-31.3727035 58.32671638-2.94579374 10.45756784-5.0078494 20.91513568-5.74429782 31.81457255-0.58915875 5.30242877-0.58915875 10.75214722-0.58915875 16.20186566-0.1472897 2.65121438 0.1472897 5.44971845 0.29457938 8.10093285l0.44186907 8.10093281 0.14728966 1.47289689c1.17831749 21.06242535-14.87625845 39.03176725-35.9386838 40.21008475-21.06242535 1.17831749-39.03176725-14.87625845-40.21008476-35.93868381-0.1472897-2.35663501 0-4.8605597 0.29457936-7.21719471l1.47289688-11.19401627c0.58915875-3.68224221 0.88373813-7.36448439 1.76747626-11.04672658 1.47289687-7.36448439 2.94579374-14.72896878 5.15513907-21.94616348 3.82953187-14.58167909 9.5738297-28.72148912 16.34915535-42.12485071 13.69794096-26.80672317 33.14017975-50.22578353 55.3809226-68.34241513 22.24074286-18.41121097 46.9854104-31.81457257 72.46652639-41.68298164 12.66691315-5.0078494 25.62840566-8.98467097 38.73718789-12.2250441 6.48074626-1.62018657 13.10878221-3.09308345 19.73681816-4.27140095 3.24037312-0.58915875 6.62803595-1.17831749 10.01569877-1.62018657 3.38766283-0.44186907 6.62803595-0.88373813 10.31027816-1.17831749 4.8605597-0.44186907 9.27925033 3.09308345 9.72111938 8.10093283 0.44186907 4.41869063-2.35663501 8.24822251-6.48074625 9.42654001h-0.58915875z" fill="#FFE045" p-id="864"></path><path d="M455.14618051 80.14663539m-26.65943349 0a26.65943349 26.65943349 0 1 0 53.31886699 0 26.65943349 26.65943349 0 1 0-53.31886699 0Z" fill="#FF2528" p-id="865"></path><path d="M968.89261153 599.63736425m-24.30279848 0a24.30279849 24.30279849 0 1 0 48.60559697 0 24.30279849 24.30279849 0 1 0-48.60559697 0Z" fill="#FFC229" p-id="866"></path><path d="M350.27592281 937.37261834m-19.58952848 0a19.58952848 19.58952848 0 1 0 39.17905697 0 19.58952848 19.58952848 0 1 0-39.17905697 0Z" fill="#FF2528" p-id="867"></path><path d="M977.43541343 247.32043104m-19.58952848 0a19.58952848 19.58952848 0 1 0 39.17905694 0 19.58952848 19.58952848 0 1 0-39.17905694 0Z" fill="#FF2528" p-id="868"></path><path d="M92.0771001 755.61714362m-18.55850067 0a18.55850066 18.55850066 0 1 0 37.11700133 0 18.55850066 18.55850066 0 1 0-37.11700133 0Z" fill="#FFC229" p-id="869"></path></svg>